<?xml version="1.0" encoding="utf-8"?>
<!-- Generator: Adobe Illustrator 22.1.0, SVG Export Plug-In . SVG Version: 6.00 Build 0)  -->
<svg version="1.1" id="图层_1" xmlns="http://www.w3.org/2000/svg" xmlns:xlink="http://www.w3.org/1999/xlink" x="0px" y="0px"
	 viewBox="0 0 128 61.8" enable-background="new 0 0 128 61.8" xml:space="preserve">
<path fill="#417C9A" d="M64.2,61.8l-0.7-0.3C42.4,53.4,40,42.7,40,35.4V7.6l1.9,0.1c14.6,0.5,20.9-6.1,20.9-6.2L64.2,0l1.3,1.5
	c0,0.1,6,6.2,19.4,6.2h0c0.5,0,1,0,1.6,0l1.9-0.1v27.9c0,7.3-2.4,17.9-23.5,26.1L64.2,61.8z M43.6,11.3v24.1c0,3.9,0,14.3,20.5,22.4
	c20.5-8.1,20.5-18.5,20.5-22.4V11.3c-11.4,0-17.9-4.1-20.5-6.2C61.5,7.2,55,11.3,43.6,11.3L43.6,11.3z M43.6,11.3"/>
<g>
	<path fill="#16282C" d="M14.1,27.1c-0.4-1.7-1.2-3.5-3.3-3.5c-2.2,0-3.1,1.8-3.1,3.8c0,1.9,0.4,2.5,4.1,4.8
		c2.9,1.7,4.9,3.2,4.9,6.9c0,3.7-2,6.7-6,6.7c-4.2,0-5.7-2.8-6.1-6.5L7,38.9c0.3,2.6,0.9,4.6,3.8,4.6c2.1,0,3.5-1.4,3.5-4.2
		c0-3.1-2-4.2-4.5-5.6c-2.7-1.6-4.6-2.7-4.6-6.2c0-3.2,2.1-6,5.5-6c3.3,0,5,2.4,5.6,5.4L14.1,27.1z"/>
	<path fill="#16282C" d="M38.6,41.8c-1.5,2.3-3.3,3.9-6.2,3.9c-5.4,0-7.1-5-7.1-9.6c0-7.4,3.9-9.6,6.9-9.6c2.9,0,4.6,1.5,5.9,3.9
		L36,31.6c-0.8-1.5-1.8-2.8-3.7-2.8c-3.7,0-4.4,4.5-4.4,7.3c0,2.9,0.7,7.4,4.4,7.4c2.2,0,3.3-1.3,4.4-3L38.6,41.8z"/>
	<path fill="#16282C" d="M49.9,26.9v12.6c0,2.7,0.8,4,3.2,4c3,0,3.6-1.3,3.6-4V26.9h2.4v13.8c0,2.5-1.7,5.1-5.8,5.1
		c-4,0-5.8-2.5-5.8-5.2V26.9H49.9z"/>
	<path fill="#16282C" d="M73.5,29h-5.1v-2.1h12.5V29h-5v16.4h-2.4V29z"/>
	<path fill="#16282C" d="M92.6,26.9v12.6c0,2.7,0.8,4,3.2,4c3,0,3.6-1.3,3.6-4V26.9h2.4v13.8c0,2.5-1.7,5.1-5.8,5.1
		c-4,0-5.8-2.5-5.8-5.2V26.9H92.6z"/>
	<path fill="#16282C" d="M113.2,30.4L113.2,30.4l-0.5,15h-2.5l0.7-18.5h3.1l3.3,8l3.3-8h3.1l0.7,18.5H122l-0.5-15h-0.1l-4.2,9.8
		L113.2,30.4z"/>
</g>
<g display="none">
	<rect x="-12" y="32.9" display="inline" fill="none" width="23.5" height="3.2"/>
</g>
</svg>
